<svg width="84" height="82" viewBox="0 0 84 82" fill="none" xmlns="http://www.w3.org/2000/svg">
<path d="M6.79167 27.6667H77.2083L82.625 81H1.375L6.79167 27.6667Z" stroke="#333333" stroke-width="2"/>
<path d="M26.7656 67C26.7656 58.7157 33.5863 52 42 52C50.4137 52 57.2344 58.7157 57.2344 67M34.8906 44C34.8906 46.2091 33.0718 48 30.8281 48C28.5845 48 26.7656 46.2091 26.7656 44C26.7656 41.7909 28.5845 40 30.8281 40C33.0718 40 34.8906 41.7909 34.8906 44ZM57.2344 44C57.2344 46.2091 55.4155 48 53.1719 48C50.9282 48 49.1094 46.2091 49.1094 44C49.1094 41.7909 50.9282 40 53.1719 40C55.4155 40 57.2344 41.7909 57.2344 44Z" stroke="#E33834" stroke-width="2"/>
</svg>
