<?xml version="1.0" encoding="utf-8"?><svg xmlns="http://www.w3.org/2000/svg" xmlns:xlink="http://www.w3.org/1999/xlink"><symbol viewBox="0 0 18 18" id="i-arrs" xmlns="http://www.w3.org/2000/svg"><path d="M17.35 4.35a.5.5 0 000-.7L14.17.46a.5.5 0 10-.7.71L16.28 4l-2.83 2.83a.5.5 0 10.71.7l3.18-3.18zm-16.7 9.3a.5.5 0 000 .7l3.18 3.19a.5.5 0 10.7-.71L1.72 14l2.83-2.83a.5.5 0 10-.71-.7L.65 13.64zM1 4.5h16v-1H1v1zm16 9H1v1h16v-1z"/></symbol><symbol viewBox="0 0 18 20" id="i-bag" xmlns="http://www.w3.org/2000/svg"><g clip-path="url(#bclip0)"><path fill-rule="evenodd" clip-rule="evenodd" d="M-.04 5.93h17.928v9.307a4.816 4.816 0 01-1.398 3.391 4.777 4.777 0 01-3.378 1.407H4.737a4.766 4.766 0 01-3.379-1.406 4.809 4.809 0 01-1.397-3.39v-9.31zm1.5 1.5v7.808c0 .876.347 1.715.962 2.333a3.265 3.265 0 002.315.964h8.375a3.258 3.258 0 002.315-.965 3.299 3.299 0 00.96-2.333V7.43H1.462z"/><path d="M12.205 8.971a.716.716 0 00.71.715.709.709 0 00.711-.715h-1.421zm-7.978 0a.716.716 0 00.71.715.709.709 0 00.711-.715h-1.42zm1.421 0v-4.01h-1.42v4.01h1.42zm6.556-4.01v4.01h1.421v-4.01h-1.421zM8.926 1.668c.87 0 1.703.347 2.318.965s.96 1.456.96 2.33h1.421a4.737 4.737 0 00-1.376-3.34A4.686 4.686 0 008.927.238v1.429zM5.648 4.962c0-.874.346-1.712.96-2.33a3.27 3.27 0 012.318-.965V.238a4.686 4.686 0 00-3.323 1.384 4.736 4.736 0 00-1.376 3.34h1.421z"/></g><defs><clipPath id="bclip0"><path d="M0 0h18v20H0z"/></clipPath></defs></symbol><symbol viewBox="0 0 18 20" id="i-bag-fill" xmlns="http://www.w3.org/2000/svg"><path d="M.71 6.68h16.428v8.557A4.065 4.065 0 0115.96 18.1a4.026 4.026 0 01-2.847 1.186H4.737A4.016 4.016 0 011.891 18.1a4.059 4.059 0 01-1.18-2.862V6.68z"/><path d="M12.204 8.971a.716.716 0 00.71.715.709.709 0 00.711-.715h-1.42zm-7.977 0a.716.716 0 00.71.715.709.709 0 00.71-.715h-1.42zm1.42 0v-4.01h-1.42v4.01h1.42zm6.556-4.01v4.01h1.421v-4.01h-1.42zM8.926 1.668c.869 0 1.703.347 2.317.965.615.618.96 1.456.96 2.33h1.421a4.737 4.737 0 00-1.376-3.34A4.686 4.686 0 008.927.238v1.429zM5.648 4.962c0-.874.345-1.712.96-2.33a3.27 3.27 0 012.318-.965V.238a4.686 4.686 0 00-3.323 1.384 4.737 4.737 0 00-1.376 3.34h1.42z"/></symbol><symbol viewBox="0 0 13 15" id="i-book" xmlns="http://www.w3.org/2000/svg"><path d="M12.25 10.594V1.406c0-.355-.3-.656-.656-.656H2.625A2.626 2.626 0 000 3.375v8.75a2.626 2.626 0 002.625 2.625h8.969a.648.648 0 00.656-.656v-.438a.664.664 0 00-.246-.492c-.137-.437-.137-1.64 0-2.05a.68.68 0 00.246-.52zM3.5 4.414c0-.082.055-.164.164-.164h5.797c.082 0 .164.082.164.164v.547c0 .11-.082.164-.164.164H3.664c-.11 0-.164-.055-.164-.164v-.547zm0 1.75c0-.082.055-.164.164-.164h5.797c.082 0 .164.082.164.164v.547c0 .11-.082.164-.164.164H3.664c-.11 0-.164-.055-.164-.164v-.547zM10.418 13H2.625a.864.864 0 01-.875-.875c0-.465.383-.875.875-.875h7.793a9.35 9.35 0 000 1.75z"/></symbol><symbol viewBox="0 0 385 385" id="i-check" xmlns="http://www.w3.org/2000/svg"><path d="M192.5 0a192.5 192.5 0 100 385 192.5 192.5 0 000-385zm0 361a168.4 168.4 0 110-337 168.4 168.4 0 010 337z"/><path d="M280.3 125L156.5 247.7 105 197.2a12.2 12.2 0 00-17.1 0 12 12 0 000 17l60.1 59c5 4.3 12.3 4.8 17.2 0L297.5 142a12 12 0 000-17 12.3 12.3 0 00-17.2 0z"/></symbol><symbol viewBox="0 0 18 18" id="i-deliv" xmlns="http://www.w3.org/2000/svg"><path d="M9.909 17.448L.5 13.468V4.515L4.562 2.55 8.697.552 17.5 4.523v8.974l-7.591 3.95z" stroke="#333"/></symbol><symbol viewBox="0 0 20 20" id="i-free" xmlns="http://www.w3.org/2000/svg"><g clip-path="url(#gclip0)"><path fill-rule="evenodd" clip-rule="evenodd" d="M9.66 0L20 4.67v10.66L11.03 20 0 15.33V4.67L9.66 0zm.01 1.1L7.22 2.3l8.26 3.6 2.23-1.16L9.67 1.1zM4.85 3.43L2.42 4.61 11 8.23l2.2-1.15-8.34-3.65zM10.03 10L1 6.18v8.5l9.03 3.81V10zm2-.06v8.41L19 14.73V6.3l-6.97 3.63z"/></g><defs><clipPath id="gclip0"><path d="M0 0h20v20H0z"/></clipPath></defs></symbol><symbol viewBox="0 0 16 13" id="i-house" xmlns="http://www.w3.org/2000/svg"><path d="M7.68 3.8a.49.49 0 01.22-.06c.08 0 .15.02.22.06l5.03 4.15v4.49c0 .13-.04.23-.13.3a.36.36 0 01-.3.13H9.64a.45.45 0 01-.33-.13.47.47 0 01-.1-.3V9.8a.49.49 0 00-.06-.22.36.36 0 00-.16-.16.49.49 0 00-.22-.05H7.03a.45.45 0 00-.33.13.4.4 0 00-.11.3v2.63c0 .1-.05.2-.14.3a.36.36 0 01-.3.13H3.1a.45.45 0 01-.33-.13.4.4 0 01-.1-.3V7.95l5-4.15zm7.99 2.81c.07.08.1.17.1.28 0 .07-.02.13-.07.19l-.69.85c-.07.09-.15.13-.24.13a.3.3 0 01-.22-.08l-6.43-5.3a.49.49 0 00-.22-.06.49.49 0 00-.22.06l-6.42 5.3a.26.26 0 01-.2.08c-.1 0-.2-.04-.27-.13l-.68-.85a.26.26 0 01-.08-.2c0-.1.03-.2.1-.27L7.06.93c.26-.2.54-.3.85-.3.31 0 .59.1.82.3l2.46 2.02v-2c0-.09.03-.16.09-.22.07-.07.15-.1.24-.1h1.53c.1 0 .17.03.22.1.07.06.11.13.11.22v3.8l2.3 1.86z"/></symbol><symbol viewBox="0 0 14 14" id="i-instagram" xmlns="http://www.w3.org/2000/svg"><path d="M10.35 0h-6.7A3.63 3.63 0 000 3.62v6.63c0 2 1.64 3.61 3.65 3.61h6.7A3.63 3.63 0 0014 10.25V3.62c0-2-1.64-3.62-3.65-3.62z"/><path d="M7 9.9c1.66 0 3-1.33 3-2.97a2.99 2.99 0 00-3-2.97c-1.66 0-3 1.33-3 2.97A2.99 2.99 0 007 9.9z" stroke="#fff"/><path d="M10.65 4.22c.5 0 .92-.4.92-.9s-.41-.9-.92-.9a.9.9 0 00-.91.9c0 .5.4.9.91.9z"/></symbol><symbol viewBox="0 0 512 512" id="i-lang" xmlns="http://www.w3.org/2000/svg"><path d="M256 0C114.8 0 0 114.8 0 256s114.8 256 256 256 256-114.8 256-256S397.2 0 256 0zm-15 125.7a350 350 0 01-67-9.4c3.5-8.2 7.2-16 11.2-23.5C201.8 62.3 222.1 41 241 33.2zm0 30V241h-93.7a377 377 0 0116.4-96.4c24.9 6.2 51 10 77.3 11zm0 115.3v85.3c-26.3 1-52.4 4.9-77.3 11.1a377 377 0 01-16.4-96.4zm0 115.3v92.5c-19-7.8-39.2-29.1-55.8-59.6-4-7.4-7.7-15.3-11.2-23.5a350 350 0 0167-9.4zm30 0a350 350 0 0167 9.4c-3.5 8.2-7.2 16-11.2 23.5-16.6 30.5-36.9 51.8-55.8 59.6zm0-30V271h93.7a377 377 0 01-16.4 96.4c-24.9-6.2-51-10-77.3-11zm0-115.3v-85.3c26.3-1 52.4-4.9 77.3-11.1a377 377 0 0116.4 96.4zm0-115.3V33.2c19 7.8 39.2 29.1 55.8 59.6 4 7.5 7.7 15.3 11.2 23.5a350 350 0 01-67 9.4zm82.1-47.2c-7.5-13.8-15.6-26-24.2-36.4 30 10.2 57.1 26.6 80 47.6-13 7-27.1 13-41.9 18.1a304 304 0 00-13.9-29.3zm-194.2 0a304 304 0 00-14 29.3c-14.7-5-28.7-11.1-41.8-18.1 22.9-21 50-37.4 80-47.6A227.8 227.8 0 00159 78.5zm-24 57.5a401.7 401.7 0 00-17.6 105H30.5a225 225 0 0151.3-128.8 308.6 308.6 0 0053 23.8zm-17.6 135c1.3 36.5 7.3 72.2 17.5 105a308.6 308.6 0 00-53 23.8A225 225 0 0130.5 271zM145 404.2a304 304 0 0013.9 29.3 228 228 0 0024.2 36.4 226.2 226.2 0 01-80-47.6c13-7 27.1-13 41.9-18.1zm208 29.3a304 304 0 0014-29.3c14.7 5 28.7 11.1 41.8 18.1-22.9 21-50 37.4-80 47.6a227.8 227.8 0 0024.2-36.4zm24-57.5a401.7 401.7 0 0017.6-105h86.8a225 225 0 01-51.3 128.8 308.6 308.6 0 00-53-23.8zm17.6-135a401.7 401.7 0 00-17.5-105 308.6 308.6 0 0053-23.8A225 225 0 01481.5 241zm0 0"/></symbol><symbol viewBox="0 0 23 20" id="i-like" xmlns="http://www.w3.org/2000/svg"><path d="M.1 5.5C.5 2.4 3.1 0 6.4 0c2 0 3.6 1 4.8 2.4A6 6 0 0115.9 0c3.2 0 5.9 2.4 6.3 5.5l.1.8c0 1.8-.7 3.5-1.7 5.1a35.2 35.2 0 01-7.3 7.1l-1.2.8-.3.2-.1.1-.6.4-.4-.3-.1-.1-.3-.2-1.2-.8a35.2 35.2 0 01-7.3-7.1A9 9 0 010 6.4l.1-.9zm10.3-1.6a4.6 4.6 0 00-4-2.3 4.8 4.8 0 00-4.7 4.2v.5c0 1.4.6 2.9 1.5 4.3.8 1.4 2 2.8 3.3 3.9 2.2 2 4.1 3.2 4.6 3.5h.2a31.2 31.2 0 008-7.4 8.3 8.3 0 001.5-4.3v-.6a4.8 4.8 0 00-4.7-4.2c-1.8 0-3.3.9-4.1 2.4L11.3 5l-.9-1.1z"/></symbol><symbol viewBox="0 0 15 14" id="i-like-fill" xmlns="http://www.w3.org/2000/svg"><path d="M0 3.9C.4 1.6 2 0 4.4 0c1.4 0 2.4.7 3.2 1.7A4 4 0 0110.7 0c2.1 0 4 1.7 4.2 3.9l.1.5A7 7 0 0113.9 8c-.7 1.1-1.7 2-2.5 3l-2.5 2-.8.5-.2.2-.4.3-.3-.2-.3-.2c-.2 0-.4-.3-.8-.6a23.8 23.8 0 01-4.9-5A6.5 6.5 0 010 4.6V4z"/></symbol><symbol viewBox="0 0 14 11" id="i-mail" xmlns="http://www.w3.org/2000/svg"><path d="M13.73 3.97c-.63.5-1.43 1.1-4.21 3.12C8.97 7.5 7.96 8.4 7 8.4c-.98 0-1.97-.9-2.54-1.31A143.76 143.76 0 01.25 3.97c-.11-.08-.25 0-.25.14v5.58C0 10.43.57 11 1.31 11H12.7c.7 0 1.31-.57 1.31-1.31V4.1c0-.14-.16-.22-.27-.14zM7 7.5c.63.03 1.53-.8 2-1.12 3.63-2.63 3.9-2.87 4.73-3.53.16-.1.27-.3.27-.52v-.52c0-.7-.6-1.31-1.31-1.31H1.3C.57.5 0 1.1 0 1.81v.52c0 .22.08.41.25.52.82.66 1.09.9 4.73 3.53C5.44 6.7 6.34 7.53 7 7.5z"/></symbol><symbol viewBox="0 0 11 15" id="i-map" xmlns="http://www.w3.org/2000/svg"><path d="M4.7 14.48c-.43-.64-.94-1.36-1.5-2.16l-1.18-1.7A32.03 32.03 0 01.57 8.38L.25 7.6c-.11-.3-.19-.57-.22-.79C0 6.58 0 6.31 0 6c0-1.46.51-2.7 1.53-3.72A5.06 5.06 0 015.25.75c1.46 0 2.7.51 3.72 1.53a5.44 5.44 0 011.48 4.54 5.34 5.34 0 01-.55 1.56c-.1.2-.3.55-.6 1.04l-.82 1.2a204.4 204.4 0 00-2.68 3.86.63.63 0 01-.55.27.63.63 0 01-.55-.27zm-1-6.92c.43.42.95.63 1.55.63.6 0 1.11-.21 1.53-.63.44-.44.66-.96.66-1.56 0-.6-.22-1.11-.66-1.53a2.04 2.04 0 00-1.53-.66c-.6 0-1.12.22-1.56.66-.42.42-.63.93-.63 1.53s.21 1.12.63 1.56z"/></symbol><symbol viewBox="0 0 14 15" id="i-mess" xmlns="http://www.w3.org/2000/svg"><path d="M12.25.75H1.75C.766.75 0 1.543 0 2.5v7.875c0 .984.766 1.75 1.75 1.75h2.625v2.297c0 .273.3.437.52.273l3.418-2.57h3.937c.957 0 1.75-.766 1.75-1.75V2.5c0-.957-.793-1.75-1.75-1.75z"/></symbol><symbol viewBox="0 0 23 8" id="i-pag-arr" xmlns="http://www.w3.org/2000/svg"><path d="M.6 4.4a.5.5 0 010-.8L3.8.5a.5.5 0 11.7.7L1.7 4l2.8 2.8a.5.5 0 11-.7.7L.6 4.4zm22.4.1H1v-1h22v1z"/></symbol><symbol viewBox="0 0 15 15" id="i-phone" xmlns="http://www.w3.org/2000/svg"><path d="M14.5 1.4L11.6.8c-.3-.1-.6 0-.7.4l-1.3 3c-.2.3 0 .6.2.8l1.6 1.4c-1 2-2.7 3.8-4.8 4.8L5.2 9.5a.7.7 0 00-.8-.2l-3 1.3c-.3.2-.5.5-.4.8l.7 2.9c0 .3.3.4.6.4 7 0 12.7-5.6 12.7-12.6 0-.3-.2-.6-.5-.7z"/></symbol><symbol viewBox="0 0 11 11" id="i-plus" xmlns="http://www.w3.org/2000/svg"><path fill-rule="evenodd" clip-rule="evenodd" d="M5 5V0h1v5h5v1H6v5H5V6H0V5h5z"/></symbol><symbol viewBox="0 0 14 15" id="i-post" xmlns="http://www.w3.org/2000/svg"><path d="M13.95 5.8l.02.2H7.44V.75h3.85c.2 0 .39.04.55.1.16.08.31.2.44.34.12.13.22.28.27.46l1.4 4.16zM6.56.76V6H.03l.02-.2 1.4-4.15c.09-.27.25-.49.46-.65.24-.17.5-.25.8-.25h3.85zM0 6.88h14v6.56a1.3 1.3 0 01-1.31 1.31H1.3a1.3 1.3 0 01-.93-.38 1.27 1.27 0 01-.38-.93V6.88z"/></symbol><symbol viewBox="0 0 18 18" id="i-remove" xmlns="http://www.w3.org/2000/svg"><path fill-rule="evenodd" clip-rule="evenodd" d="M9 1.5a7.5 7.5 0 100 15 7.5 7.5 0 000-15zM.5 9a8.5 8.5 0 1117 0 8.5 8.5 0 01-17 0zm7.8 0L5.64 6.35l.7-.7L9 8.29l2.65-2.64.7.7L9.71 9l2.64 2.65-.7.7L9 9.71l-2.65 2.64-.7-.7L8.29 9z"/></symbol><symbol viewBox="0 0 14 15" id="i-sale" xmlns="http://www.w3.org/2000/svg"><path d="M4.063 6.875a3.075 3.075 0 003.062-3.063C7.125 2.146 5.73.75 4.062.75A3.075 3.075 0 001 3.813a3.057 3.057 0 003.063 3.062zm0-4.375c.71 0 1.312.602 1.312 1.313 0 .738-.602 1.312-1.313 1.312A1.296 1.296 0 012.75 3.812c0-.71.574-1.312 1.313-1.312zm6.125 6.125a3.075 3.075 0 00-3.063 3.063 3.057 3.057 0 003.063 3.062 3.075 3.075 0 003.062-3.063c0-1.667-1.395-3.062-3.063-3.062zm0 4.375a1.296 1.296 0 01-1.313-1.313c0-.71.574-1.312 1.313-1.312.71 0 1.312.602 1.312 1.313 0 .738-.602 1.312-1.313 1.312zM11.717.777a.638.638 0 00-.546.274L1.109 13.738c-.3.41 0 1.012.547 1.012h.903c.191 0 .437-.11.546-.273L13.113 1.789c.301-.437 0-1.039-.547-1.012h-.847z"/></symbol><symbol viewBox="0 0 20 20" id="i-search" xmlns="http://www.w3.org/2000/svg"><g clip-path="url(#vclip0)"><path d="M9 16a8 8 0 005-1.9l4.7 4.7h0a.8.8 0 001.1 0h0a.8.8 0 000-1h0L15.2 13A8 8 0 109 16zm0 0v-.1m0 0s0 0 0 0v0m0 0a8 8 0 005-1.9l-5 2zm6.7-8A6.7 6.7 0 112.2 8a6.7 6.7 0 0113.5 0z" stroke="#000" stroke-width=".1"/></g><defs><clipPath id="vclip0"><path d="M0 0h20v20H0z"/></clipPath></defs></symbol><symbol viewBox="0 0 13 15" id="i-user" xmlns="http://www.w3.org/2000/svg"><path d="M6.125 7.75c1.914 0 3.5-1.559 3.5-3.5 0-1.914-1.586-3.5-3.5-3.5a3.507 3.507 0 00-3.5 3.5 3.49 3.49 0 003.5 3.5zm2.434.875h-.465c-.602.3-1.258.438-1.969.438-.71 0-1.395-.137-1.996-.438h-.465C1.641 8.625 0 10.293 0 12.316v1.121c0 .739.574 1.313 1.313 1.313h9.624c.711 0 1.313-.574 1.313-1.313v-1.12c0-2.024-1.668-3.692-3.691-3.692z"/></symbol></svg>