<?xml version="1.0" encoding="utf-8"?><svg xmlns="http://www.w3.org/2000/svg" xmlns:xlink="http://www.w3.org/1999/xlink"><symbol viewBox="0 0 18 20" id="i-bag" xmlns="http://www.w3.org/2000/svg"><g clip-path="url(#aclip0)"><path fill-rule="evenodd" clip-rule="evenodd" d="M-.04 5.93h17.928v9.307a4.816 4.816 0 01-1.398 3.391 4.777 4.777 0 01-3.378 1.407H4.737a4.766 4.766 0 01-3.379-1.406 4.809 4.809 0 01-1.397-3.39v-9.31zm1.5 1.5v7.808c0 .876.347 1.715.962 2.333a3.265 3.265 0 002.315.964h8.375a3.258 3.258 0 002.315-.965 3.299 3.299 0 00.96-2.333V7.43H1.462z"/><path d="M12.205 8.971a.716.716 0 00.71.715.709.709 0 00.711-.715h-1.421zm-7.978 0a.716.716 0 00.71.715.709.709 0 00.711-.715h-1.42zm1.421 0v-4.01h-1.42v4.01h1.42zm6.556-4.01v4.01h1.421v-4.01h-1.421zM8.926 1.668c.87 0 1.703.347 2.318.965s.96 1.456.96 2.33h1.421a4.737 4.737 0 00-1.376-3.34A4.686 4.686 0 008.927.238v1.429zM5.648 4.962c0-.874.346-1.712.96-2.33a3.27 3.27 0 012.318-.965V.238a4.686 4.686 0 00-3.323 1.384 4.736 4.736 0 00-1.376 3.34h1.421z"/></g><defs><clipPath id="aclip0"><path d="M0 0h18v20H0z"/></clipPath></defs></symbol><symbol viewBox="0 0 18 20" id="i-bag-fill" xmlns="http://www.w3.org/2000/svg"><path d="M.71 6.68h16.428v8.557A4.065 4.065 0 0115.96 18.1a4.026 4.026 0 01-2.847 1.186H4.737A4.016 4.016 0 011.891 18.1a4.059 4.059 0 01-1.18-2.862V6.68z"/><path d="M12.204 8.971a.716.716 0 00.71.715.709.709 0 00.711-.715h-1.42zm-7.977 0a.716.716 0 00.71.715.709.709 0 00.71-.715h-1.42zm1.42 0v-4.01h-1.42v4.01h1.42zm6.556-4.01v4.01h1.421v-4.01h-1.42zM8.926 1.668c.869 0 1.703.347 2.317.965.615.618.96 1.456.96 2.33h1.421a4.737 4.737 0 00-1.376-3.34A4.686 4.686 0 008.927.238v1.429zM5.648 4.962c0-.874.345-1.712.96-2.33a3.27 3.27 0 012.318-.965V.238a4.686 4.686 0 00-3.323 1.384 4.737 4.737 0 00-1.376 3.34h1.42z"/></symbol><symbol viewBox="0 0 13 15" id="i-book" xmlns="http://www.w3.org/2000/svg"><path d="M12.25 10.594V1.406c0-.355-.3-.656-.656-.656H2.625A2.626 2.626 0 000 3.375v8.75a2.626 2.626 0 002.625 2.625h8.969a.648.648 0 00.656-.656v-.438a.664.664 0 00-.246-.492c-.137-.437-.137-1.64 0-2.05a.68.68 0 00.246-.52zM3.5 4.414c0-.082.055-.164.164-.164h5.797c.082 0 .164.082.164.164v.547c0 .11-.082.164-.164.164H3.664c-.11 0-.164-.055-.164-.164v-.547zm0 1.75c0-.082.055-.164.164-.164h5.797c.082 0 .164.082.164.164v.547c0 .11-.082.164-.164.164H3.664c-.11 0-.164-.055-.164-.164v-.547zM10.418 13H2.625a.864.864 0 01-.875-.875c0-.465.383-.875.875-.875h7.793a9.35 9.35 0 000 1.75z"/></symbol><symbol viewBox="0 0 385 385" id="i-check" xmlns="http://www.w3.org/2000/svg"><path d="M192.5 0a192.5 192.5 0 100 385 192.5 192.5 0 000-385zm0 361a168.4 168.4 0 110-337 168.4 168.4 0 010 337z"/><path d="M280.3 125L156.5 247.7 105 197.2a12.2 12.2 0 00-17.1 0 12 12 0 000 17l60.1 59c5 4.3 12.3 4.8 17.2 0L297.5 142a12 12 0 000-17 12.3 12.3 0 00-17.2 0z"/></symbol><symbol viewBox="0 0 14 14" id="i-instagram" xmlns="http://www.w3.org/2000/svg"><path d="M10.35 0h-6.7A3.63 3.63 0 000 3.62v6.63c0 2 1.64 3.61 3.65 3.61h6.7A3.63 3.63 0 0014 10.25V3.62c0-2-1.64-3.62-3.65-3.62z"/><path d="M7 9.9c1.66 0 3-1.33 3-2.97a2.99 2.99 0 00-3-2.97c-1.66 0-3 1.33-3 2.97A2.99 2.99 0 007 9.9z" stroke="#fff"/><path d="M10.65 4.22c.5 0 .92-.4.92-.9s-.41-.9-.92-.9a.9.9 0 00-.91.9c0 .5.4.9.91.9z"/></symbol><symbol viewBox="0 0 512 512" id="i-lang" xmlns="http://www.w3.org/2000/svg"><path d="M256 0C114.8 0 0 114.8 0 256s114.8 256 256 256 256-114.8 256-256S397.2 0 256 0zm-15 125.7a350 350 0 01-67-9.4c3.5-8.2 7.2-16 11.2-23.5C201.8 62.3 222.1 41 241 33.2zm0 30V241h-93.7a377 377 0 0116.4-96.4c24.9 6.2 51 10 77.3 11zm0 115.3v85.3c-26.3 1-52.4 4.9-77.3 11.1a377 377 0 01-16.4-96.4zm0 115.3v92.5c-19-7.8-39.2-29.1-55.8-59.6-4-7.4-7.7-15.3-11.2-23.5a350 350 0 0167-9.4zm30 0a350 350 0 0167 9.4c-3.5 8.2-7.2 16-11.2 23.5-16.6 30.5-36.9 51.8-55.8 59.6zm0-30V271h93.7a377 377 0 01-16.4 96.4c-24.9-6.2-51-10-77.3-11zm0-115.3v-85.3c26.3-1 52.4-4.9 77.3-11.1a377 377 0 0116.4 96.4zm0-115.3V33.2c19 7.8 39.2 29.1 55.8 59.6 4 7.5 7.7 15.3 11.2 23.5a350 350 0 01-67 9.4zm82.1-47.2c-7.5-13.8-15.6-26-24.2-36.4 30 10.2 57.1 26.6 80 47.6-13 7-27.1 13-41.9 18.1a304 304 0 00-13.9-29.3zm-194.2 0a304 304 0 00-14 29.3c-14.7-5-28.7-11.1-41.8-18.1 22.9-21 50-37.4 80-47.6A227.8 227.8 0 00159 78.5zm-24 57.5a401.7 401.7 0 00-17.6 105H30.5a225 225 0 0151.3-128.8 308.6 308.6 0 0053 23.8zm-17.6 135c1.3 36.5 7.3 72.2 17.5 105a308.6 308.6 0 00-53 23.8A225 225 0 0130.5 271zM145 404.2a304 304 0 0013.9 29.3 228 228 0 0024.2 36.4 226.2 226.2 0 01-80-47.6c13-7 27.1-13 41.9-18.1zm208 29.3a304 304 0 0014-29.3c14.7 5 28.7 11.1 41.8 18.1-22.9 21-50 37.4-80 47.6a227.8 227.8 0 0024.2-36.4zm24-57.5a401.7 401.7 0 0017.6-105h86.8a225 225 0 01-51.3 128.8 308.6 308.6 0 00-53-23.8zm17.6-135a401.7 401.7 0 00-17.5-105 308.6 308.6 0 0053-23.8A225 225 0 01481.5 241zm0 0"/></symbol><symbol viewBox="0 0 23 20" id="i-like" xmlns="http://www.w3.org/2000/svg"><path d="M.1 5.5C.5 2.4 3.1 0 6.4 0c2 0 3.6 1 4.8 2.4A6 6 0 0115.9 0c3.2 0 5.9 2.4 6.3 5.5l.1.8c0 1.8-.7 3.5-1.7 5.1a35.2 35.2 0 01-7.3 7.1l-1.2.8-.3.2-.1.1-.6.4-.4-.3-.1-.1-.3-.2-1.2-.8a35.2 35.2 0 01-7.3-7.1A9 9 0 010 6.4l.1-.9zm10.3-1.6a4.6 4.6 0 00-4-2.3 4.8 4.8 0 00-4.7 4.2v.5c0 1.4.6 2.9 1.5 4.3.8 1.4 2 2.8 3.3 3.9 2.2 2 4.1 3.2 4.6 3.5h.2a31.2 31.2 0 008-7.4 8.3 8.3 0 001.5-4.3v-.6a4.8 4.8 0 00-4.7-4.2c-1.8 0-3.3.9-4.1 2.4L11.3 5l-.9-1.1z"/></symbol><symbol viewBox="0 0 15 14" id="i-like-fill" xmlns="http://www.w3.org/2000/svg"><path d="M0 3.9C.4 1.6 2 0 4.4 0c1.4 0 2.4.7 3.2 1.7A4 4 0 0110.7 0c2.1 0 4 1.7 4.2 3.9l.1.5A7 7 0 0113.9 8c-.7 1.1-1.7 2-2.5 3l-2.5 2-.8.5-.2.2-.4.3-.3-.2-.3-.2c-.2 0-.4-.3-.8-.6a23.8 23.8 0 01-4.9-5A6.5 6.5 0 010 4.6V4z"/></symbol><symbol viewBox="0 0 14 11" id="i-mail" xmlns="http://www.w3.org/2000/svg"><path d="M13.73 3.97c-.63.5-1.43 1.1-4.21 3.12C8.97 7.5 7.96 8.4 7 8.4c-.98 0-1.97-.9-2.54-1.31A143.76 143.76 0 01.25 3.97c-.11-.08-.25 0-.25.14v5.58C0 10.43.57 11 1.31 11H12.7c.7 0 1.31-.57 1.31-1.31V4.1c0-.14-.16-.22-.27-.14zM7 7.5c.63.03 1.53-.8 2-1.12 3.63-2.63 3.9-2.87 4.73-3.53.16-.1.27-.3.27-.52v-.52c0-.7-.6-1.31-1.31-1.31H1.3C.57.5 0 1.1 0 1.81v.52c0 .22.08.41.25.52.82.66 1.09.9 4.73 3.53C5.44 6.7 6.34 7.53 7 7.5z"/></symbol><symbol viewBox="0 0 14 15" id="i-mess" xmlns="http://www.w3.org/2000/svg"><path d="M12.25.75H1.75C.766.75 0 1.543 0 2.5v7.875c0 .984.766 1.75 1.75 1.75h2.625v2.297c0 .273.3.437.52.273l3.418-2.57h3.937c.957 0 1.75-.766 1.75-1.75V2.5c0-.957-.793-1.75-1.75-1.75z"/></symbol><symbol viewBox="0 0 23 8" id="i-pag-arr" xmlns="http://www.w3.org/2000/svg"><path d="M.6 4.4a.5.5 0 010-.8L3.8.5a.5.5 0 11.7.7L1.7 4l2.8 2.8a.5.5 0 11-.7.7L.6 4.4zm22.4.1H1v-1h22v1z"/></symbol><symbol viewBox="0 0 15 15" id="i-phone" xmlns="http://www.w3.org/2000/svg"><path d="M14.5 1.4L11.6.8c-.3-.1-.6 0-.7.4l-1.3 3c-.2.3 0 .6.2.8l1.6 1.4c-1 2-2.7 3.8-4.8 4.8L5.2 9.5a.7.7 0 00-.8-.2l-3 1.3c-.3.2-.5.5-.4.8l.7 2.9c0 .3.3.4.6.4 7 0 12.7-5.6 12.7-12.6 0-.3-.2-.6-.5-.7z"/></symbol><symbol viewBox="0 0 20 20" id="i-search" xmlns="http://www.w3.org/2000/svg"><g clip-path="url(#mclip0)"><path d="M9 16a8 8 0 005-1.9l4.7 4.7h0a.8.8 0 001.1 0h0a.8.8 0 000-1h0L15.2 13A8 8 0 109 16zm0 0v-.1m0 0s0 0 0 0v0m0 0a8 8 0 005-1.9l-5 2zm6.7-8A6.7 6.7 0 112.2 8a6.7 6.7 0 0113.5 0z" stroke="#000" stroke-width=".1"/></g><defs><clipPath id="mclip0"><path d="M0 0h20v20H0z"/></clipPath></defs></symbol><symbol viewBox="0 0 13 15" id="i-user" xmlns="http://www.w3.org/2000/svg"><path d="M6.125 7.75c1.914 0 3.5-1.559 3.5-3.5 0-1.914-1.586-3.5-3.5-3.5a3.507 3.507 0 00-3.5 3.5 3.49 3.49 0 003.5 3.5zm2.434.875h-.465c-.602.3-1.258.438-1.969.438-.71 0-1.395-.137-1.996-.438h-.465C1.641 8.625 0 10.293 0 12.316v1.121c0 .739.574 1.313 1.313 1.313h9.624c.711 0 1.313-.574 1.313-1.313v-1.12c0-2.024-1.668-3.692-3.691-3.692z"/></symbol></svg>