<svg width="18" height="20" fill="none" xmlns="http://www.w3.org/2000/svg"><path d="M.71 6.68h16.428v8.557A4.065 4.065 0 0115.96 18.1a4.026 4.026 0 01-2.847 1.186H4.737A4.016 4.016 0 011.891 18.1a4.059 4.059 0 01-1.18-2.862V6.68z" fill="#fff"/><path d="M12.204 8.971a.716.716 0 00.71.715.709.709 0 00.711-.715h-1.42zm-7.977 0a.716.716 0 00.71.715.709.709 0 00.71-.715h-1.42zm1.42 0v-4.01h-1.42v4.01h1.42zm6.556-4.01v4.01h1.421v-4.01h-1.42zM8.926 1.668c.869 0 1.703.347 2.317.965.615.618.96 1.456.96 2.33h1.421a4.737 4.737 0 00-1.376-3.34A4.686 4.686 0 008.927.238v1.429zM5.648 4.962c0-.874.345-1.712.96-2.33a3.27 3.27 0 012.318-.965V.238a4.686 4.686 0 00-3.323 1.384 4.737 4.737 0 00-1.376 3.34h1.42z" fill="#fff"/></svg>