<svg width="18" height="20" fill="none" xmlns="http://www.w3.org/2000/svg"><g clip-path="url(#clip0)" fill="#080508"><path fill-rule="evenodd" clip-rule="evenodd" d="M-.04 5.93h17.928v9.307a4.816 4.816 0 01-1.398 3.391 4.777 4.777 0 01-3.378 1.407H4.737a4.766 4.766 0 01-3.379-1.406 4.809 4.809 0 01-1.397-3.39v-9.31zm1.5 1.5v7.808c0 .876.347 1.715.962 2.333a3.265 3.265 0 002.315.964h8.375a3.258 3.258 0 002.315-.965 3.299 3.299 0 00.96-2.333V7.43H1.462z"/><path d="M12.205 8.971a.716.716 0 00.71.715.709.709 0 00.711-.715h-1.421zm-7.978 0a.716.716 0 00.71.715.709.709 0 00.711-.715h-1.42zm1.421 0v-4.01h-1.42v4.01h1.42zm6.556-4.01v4.01h1.421v-4.01h-1.421zM8.926 1.668c.87 0 1.703.347 2.318.965s.96 1.456.96 2.33h1.421a4.737 4.737 0 00-1.376-3.34A4.686 4.686 0 008.927.238v1.429zM5.648 4.962c0-.874.346-1.712.96-2.33a3.27 3.27 0 012.318-.965V.238a4.686 4.686 0 00-3.323 1.384 4.736 4.736 0 00-1.376 3.34h1.421z"/></g><defs><clipPath id="clip0"><path fill="#fff" d="M0 0h18v20H0z"/></clipPath></defs></svg>