<svg width="13" height="15" viewBox="0 0 13 15" fill="none" xmlns="http://www.w3.org/2000/svg">
<path d="M12.25 10.5938V1.40625C12.25 1.05078 11.9492 0.75 11.5938 0.75H2.625C1.17578 0.75 0 1.92578 0 3.375V12.125C0 13.5742 1.17578 14.75 2.625 14.75H11.5938C11.9492 14.75 12.25 14.4766 12.25 14.0938V13.6562C12.25 13.4648 12.1406 13.2734 12.0039 13.1641C11.8672 12.7266 11.8672 11.5234 12.0039 11.1133C12.1406 11.0039 12.25 10.8125 12.25 10.5938ZM3.5 4.41406C3.5 4.33203 3.55469 4.25 3.66406 4.25H9.46094C9.54297 4.25 9.625 4.33203 9.625 4.41406V4.96094C9.625 5.07031 9.54297 5.125 9.46094 5.125H3.66406C3.55469 5.125 3.5 5.07031 3.5 4.96094V4.41406ZM3.5 6.16406C3.5 6.08203 3.55469 6 3.66406 6H9.46094C9.54297 6 9.625 6.08203 9.625 6.16406V6.71094C9.625 6.82031 9.54297 6.875 9.46094 6.875H3.66406C3.55469 6.875 3.5 6.82031 3.5 6.71094V6.16406ZM10.418 13H2.625C2.13281 13 1.75 12.6172 1.75 12.125C1.75 11.6602 2.13281 11.25 2.625 11.25H10.418C10.3633 11.7422 10.3633 12.5352 10.418 13Z" fill="#CCCCCC"/>
</svg>
