<svg width="27" height="18" viewBox="0 0 27 18" fill="none" xmlns="http://www.w3.org/2000/svg">
<path fill-rule="evenodd" clip-rule="evenodd" d="M0 2.57157C0 2.21653 0.287817 1.92871 0.642857 1.92871H26.3571C26.7122 1.92871 27 2.21653 27 2.57157C27 2.92661 26.7122 3.21443 26.3571 3.21443H0.642857C0.287817 3.21443 0 2.92661 0 2.57157Z" fill="black"/>
<path d="M8.3577 2.57143C8.3577 3.99159 7.20643 5.14286 5.78627 5.14286C4.36611 5.14286 3.21484 3.99159 3.21484 2.57143C3.21484 1.15127 4.36611 0 5.78627 0C7.20643 0 8.3577 1.15127 8.3577 2.57143Z" fill="white"/>
<path fill-rule="evenodd" clip-rule="evenodd" d="M5.78627 3.85714C6.49635 3.85714 7.07199 3.28151 7.07199 2.57143C7.07199 1.86135 6.49635 1.28571 5.78627 1.28571C5.07619 1.28571 4.50056 1.86135 4.50056 2.57143C4.50056 3.28151 5.07619 3.85714 5.78627 3.85714ZM5.78627 5.14286C7.20643 5.14286 8.3577 3.99159 8.3577 2.57143C8.3577 1.15127 7.20643 0 5.78627 0C4.36611 0 3.21484 1.15127 3.21484 2.57143C3.21484 3.99159 4.36611 5.14286 5.78627 5.14286Z" fill="black"/>
<path fill-rule="evenodd" clip-rule="evenodd" d="M0 8.99997C0 8.64493 0.287817 8.35712 0.642857 8.35712H26.3571C26.7122 8.35712 27 8.64493 27 8.99997C27 9.35501 26.7122 9.64283 26.3571 9.64283H0.642857C0.287817 9.64283 0 9.35501 0 8.99997Z" fill="black"/>
<path d="M23.7859 9.00014C23.7859 10.4203 22.6347 11.5716 21.2145 11.5716C19.7943 11.5716 18.6431 10.4203 18.6431 9.00014C18.6431 7.57998 19.7943 6.42871 21.2145 6.42871C22.6347 6.42871 23.7859 7.57998 23.7859 9.00014Z" fill="white"/>
<path fill-rule="evenodd" clip-rule="evenodd" d="M21.2145 10.2859C21.9246 10.2859 22.5002 9.71022 22.5002 9.00014C22.5002 8.29006 21.9246 7.71443 21.2145 7.71443C20.5044 7.71443 19.9288 8.29006 19.9288 9.00014C19.9288 9.71022 20.5044 10.2859 21.2145 10.2859ZM21.2145 11.5716C22.6347 11.5716 23.7859 10.4203 23.7859 9.00014C23.7859 7.57998 22.6347 6.42871 21.2145 6.42871C19.7943 6.42871 18.6431 7.57998 18.6431 9.00014C18.6431 10.4203 19.7943 11.5716 21.2145 11.5716Z" fill="black"/>
<path fill-rule="evenodd" clip-rule="evenodd" d="M0 15.4286C0 15.0736 0.287817 14.7858 0.642857 14.7858H26.3571C26.7122 14.7858 27 15.0736 27 15.4286C27 15.7837 26.7122 16.0715 26.3571 16.0715H0.642857C0.287817 16.0715 0 15.7837 0 15.4286Z" fill="black"/>
<path d="M16.0713 15.4285C16.0713 16.8487 14.9201 18 13.4999 18C12.0797 18 10.9285 16.8487 10.9285 15.4285C10.9285 14.0084 12.0797 12.8571 13.4999 12.8571C14.9201 12.8571 16.0713 14.0084 16.0713 15.4285Z" fill="white"/>
<path fill-rule="evenodd" clip-rule="evenodd" d="M13.4999 16.7143C14.21 16.7143 14.7856 16.1386 14.7856 15.4285C14.7856 14.7185 14.21 14.1428 13.4999 14.1428C12.7898 14.1428 12.2142 14.7185 12.2142 15.4285C12.2142 16.1386 12.7898 16.7143 13.4999 16.7143ZM13.4999 18C14.9201 18 16.0713 16.8487 16.0713 15.4285C16.0713 14.0084 14.9201 12.8571 13.4999 12.8571C12.0797 12.8571 10.9285 14.0084 10.9285 15.4285C10.9285 16.8487 12.0797 18 13.4999 18Z" fill="black"/>
</svg>
