<svg width="16" height="13" fill="none" xmlns="http://www.w3.org/2000/svg"><path d="M7.68 3.8a.49.49 0 01.22-.06c.08 0 .15.02.22.06l5.03 4.15v4.49c0 .13-.04.23-.13.3a.36.36 0 01-.3.13H9.64a.45.45 0 01-.33-.13.47.47 0 01-.1-.3V9.8a.49.49 0 00-.06-.22.36.36 0 00-.16-.16.49.49 0 00-.22-.05H7.03a.45.45 0 00-.33.13.4.4 0 00-.11.3v2.63c0 .1-.05.2-.14.3a.36.36 0 01-.3.13H3.1a.45.45 0 01-.33-.13.4.4 0 01-.1-.3V7.95L7.67 3.8zm7.99 2.81c.07.08.1.17.1.28 0 .07-.02.13-.07.19l-.69.85c-.07.09-.15.13-.24.13a.3.3 0 01-.22-.08l-6.43-5.3a.49.49 0 00-.22-.06.49.49 0 00-.22.06l-6.42 5.3a.26.26 0 01-.2.08c-.1 0-.2-.04-.27-.13l-.68-.85a.26.26 0 01-.08-.2c0-.1.03-.2.1-.27L7.06.93c.26-.2.54-.3.85-.3.31 0 .59.1.82.3l2.46 2.02v-2c0-.09.03-.16.09-.22.07-.07.15-.1.24-.1h1.53c.1 0 .17.03.22.1.07.06.11.13.11.22v3.8l2.3 1.86z" fill="#CCC"/></svg>