<svg height="20" viewBox="0 0 512 512" width="20" xmlns="http://www.w3.org/2000/svg"><path d="M256 0C114.8 0 0 114.8 0 256s114.8 256 256 256 256-114.8 256-256S397.2 0 256 0zm-15 125.7a350 350 0 01-67-9.4c3.5-8.2 7.2-16 11.2-23.5C201.8 62.3 222.1 41 241 33.2zm0 30V241h-93.7a377 377 0 0116.4-96.4c24.9 6.2 51 10 77.3 11zm0 115.3v85.3c-26.3 1-52.4 4.9-77.3 11.1a377 377 0 01-16.4-96.4zm0 115.3v92.5c-19-7.8-39.2-29.1-55.8-59.6-4-7.4-7.7-15.3-11.2-23.5a350 350 0 0167-9.4zm30 0a350 350 0 0167 9.4c-3.5 8.2-7.2 16-11.2 23.5-16.6 30.5-36.9 51.8-55.8 59.6zm0-30V271h93.7a377 377 0 01-16.4 96.4c-24.9-6.2-51-10-77.3-11zm0-115.3v-85.3c26.3-1 52.4-4.9 77.3-11.1a377 377 0 0116.4 96.4zm0-115.3V33.2c19 7.8 39.2 29.1 55.8 59.6 4 7.5 7.7 15.3 11.2 23.5a350 350 0 01-67 9.4zm82.1-47.2c-7.5-13.8-15.6-26-24.2-36.4 30 10.2 57.1 26.6 80 47.6-13 7-27.1 13-41.9 18.1a304 304 0 00-13.9-29.3zm-194.2 0a304 304 0 00-14 29.3c-14.7-5-28.7-11.1-41.8-18.1 22.9-21 50-37.4 80-47.6A227.8 227.8 0 00159 78.5zm-24 57.5a401.7 401.7 0 00-17.6 105H30.5a225 225 0 0151.3-128.8 308.6 308.6 0 0053 23.8zm-17.6 135c1.3 36.5 7.3 72.2 17.5 105a308.6 308.6 0 00-53 23.8A225 225 0 0130.5 271zM145 404.2a304 304 0 0013.9 29.3 228 228 0 0024.2 36.4 226.2 226.2 0 01-80-47.6c13-7 27.1-13 41.9-18.1zM353 433.5a304 304 0 0014-29.3c14.7 5 28.7 11.1 41.8 18.1-22.9 21-50 37.4-80 47.6a227.8 227.8 0 0024.2-36.4zm24-57.5a401.7 401.7 0 0017.6-105h86.8a225 225 0 01-51.3 128.8 308.6 308.6 0 00-53-23.8zm17.6-135a401.7 401.7 0 00-17.5-105 308.6 308.6 0 0053-23.8A225 225 0 01481.5 241zm0 0"/></svg>