<svg width="23" height="20" fill="none" xmlns="http://www.w3.org/2000/svg"><path d="M.1 5.5C.5 2.4 3.1 0 6.4 0c2 0 3.6 1 4.8 2.4A6 6 0 0115.9 0c3.2 0 5.9 2.4 6.3 5.5l.1.8c0 1.8-.7 3.5-1.7 5.1a35.2 35.2 0 01-7.3 7.1l-1.2.8-.3.2-.1.1-.6.4-.4-.3-.1-.1-.3-.2-1.2-.8a35.2 35.2 0 01-7.3-7.1A9 9 0 010 6.4l.1-.9zm10.3-1.6a4.6 4.6 0 00-4-2.3 4.8 4.8 0 00-4.7 4.2v.5c0 1.4.6 2.9 1.5 4.3.8 1.4 2 2.8 3.3 3.9 2.2 2 4.1 3.2 4.6 3.5h.2a31.2 31.2 0 008-7.4 8.3 8.3 0 001.5-4.3v-.6a4.8 4.8 0 00-4.7-4.2c-1.8 0-3.3.9-4.1 2.4L11.3 5l-.9-1.1z" fill="#080508"/></svg>