<svg width="14" height="11" fill="none" xmlns="http://www.w3.org/2000/svg"><path d="M13.73 3.97c-.63.5-1.43 1.1-4.21 3.12C8.97 7.5 7.96 8.4 7 8.4c-.98 0-1.97-.9-2.54-1.31A143.76 143.76 0 01.25 3.97c-.11-.08-.25 0-.25.14v5.58C0 10.43.57 11 1.31 11H12.7c.7 0 1.31-.57 1.31-1.31V4.1c0-.14-.16-.22-.27-.14zM7 7.5c.63.03 1.53-.8 2-1.12 3.63-2.63 3.9-2.87 4.73-3.53.16-.1.27-.3.27-.52v-.52c0-.7-.6-1.31-1.31-1.31H1.3C.57.5 0 1.1 0 1.81v.52c0 .22.08.41.25.52.82.66 1.09.9 4.73 3.53C5.44 6.7 6.34 7.53 7 7.5z" fill="#CCC"/></svg>