<svg width="11" height="15" fill="none" xmlns="http://www.w3.org/2000/svg"><path d="M4.7 14.48c-.43-.64-.94-1.36-1.5-2.16l-1.18-1.7A32.03 32.03 0 01.57 8.38L.25 7.6c-.11-.3-.19-.57-.22-.79C0 6.58 0 6.31 0 6c0-1.46.51-2.7 1.53-3.72A5.06 5.06 0 015.25.75c1.46 0 2.7.51 3.72 1.53a5.44 5.44 0 011.48 4.54 5.34 5.34 0 01-.55 1.56c-.1.2-.3.55-.6 1.04l-.82 1.2a204.4 204.4 0 00-2.68 3.86.63.63 0 01-.55.27.63.63 0 01-.55-.27zm-1-6.92c.43.42.95.63 1.55.63.6 0 1.11-.21 1.53-.63.44-.44.66-.96.66-1.56 0-.6-.22-1.11-.66-1.53a2.04 2.04 0 00-1.53-.66c-.6 0-1.12.22-1.56.66-.42.42-.63.93-.63 1.53s.21 1.12.63 1.56z" fill="#CCC"/></svg>