<svg width="14" height="15" viewBox="0 0 14 15" fill="none" xmlns="http://www.w3.org/2000/svg">
<path d="M4.0625 6.875C5.73047 6.875 7.125 5.50781 7.125 3.8125C7.125 2.14453 5.73047 0.75 4.0625 0.75C2.36719 0.75 1 2.14453 1 3.8125C1 5.50781 2.36719 6.875 4.0625 6.875ZM4.0625 2.5C4.77344 2.5 5.375 3.10156 5.375 3.8125C5.375 4.55078 4.77344 5.125 4.0625 5.125C3.32422 5.125 2.75 4.55078 2.75 3.8125C2.75 3.10156 3.32422 2.5 4.0625 2.5ZM10.1875 8.625C8.49219 8.625 7.125 10.0195 7.125 11.6875C7.125 13.3828 8.49219 14.75 10.1875 14.75C11.8555 14.75 13.25 13.3828 13.25 11.6875C13.25 10.0195 11.8555 8.625 10.1875 8.625ZM10.1875 13C9.44922 13 8.875 12.4258 8.875 11.6875C8.875 10.9766 9.44922 10.375 10.1875 10.375C10.8984 10.375 11.5 10.9766 11.5 11.6875C11.5 12.4258 10.8984 13 10.1875 13ZM11.7188 0.777344C11.5 0.777344 11.3086 0.859375 11.1719 1.05078L1.10938 13.7383C0.808594 14.1484 1.10938 14.75 1.65625 14.75H2.55859C2.75 14.75 2.99609 14.6406 3.10547 14.4766L13.1133 1.78906C13.4141 1.35156 13.1133 0.75 12.5664 0.777344H11.7188Z" fill="#CCCCCC"/>
</svg>
